<?xml version="1.0" encoding="UTF-8" ?>
<svg version="1.1" width="16" height="16" xmlns="http://www.w3.org/2000/svg" shape-rendering="crispEdges">
<rect x="0" y="0" width="1" height="1" fill="#242630" />
<rect x="1" y="0" width="1" height="1" fill="#242630" />
<rect x="2" y="0" width="1" height="1" fill="#242630" />
<rect x="3" y="0" width="1" height="1" fill="#242630" />
<rect x="4" y="0" width="1" height="1" fill="#242630" />
<rect x="5" y="0" width="1" height="1" fill="#242630" />
<rect x="6" y="0" width="1" height="1" fill="#242630" />
<rect x="7" y="0" width="1" height="1" fill="#242630" />
<rect x="8" y="0" width="1" height="1" fill="#242630" />
<rect x="9" y="0" width="1" height="1" fill="#242630" />
<rect x="10" y="0" width="1" height="1" fill="#242630" />
<rect x="11" y="0" width="1" height="1" fill="#242630" />
<rect x="12" y="0" width="1" height="1" fill="#242630" />
<rect x="13" y="0" width="1" height="1" fill="#242630" />
<rect x="14" y="0" width="1" height="1" fill="#242630" />
<rect x="15" y="0" width="1" height="1" fill="#242630" />
<rect x="0" y="1" width="1" height="1" fill="#242630" />
<rect x="1" y="1" width="1" height="1" fill="#242630" />
<rect x="2" y="1" width="1" height="1" fill="#242630" />
<rect x="3" y="1" width="1" height="1" fill="#242630" />
<rect x="4" y="1" width="1" height="1" fill="#242630" />
<rect x="5" y="1" width="1" height="1" fill="#242630" />
<rect x="6" y="1" width="1" height="1" fill="#242630" />
<rect x="7" y="1" width="1" height="1" fill="#242630" />
<rect x="8" y="1" width="1" height="1" fill="#242630" />
<rect x="9" y="1" width="1" height="1" fill="#242630" />
<rect x="10" y="1" width="1" height="1" fill="#242630" />
<rect x="11" y="1" width="1" height="1" fill="#242630" />
<rect x="12" y="1" width="1" height="1" fill="#242630" />
<rect x="13" y="1" width="1" height="1" fill="#242630" />
<rect x="14" y="1" width="1" height="1" fill="#242630" />
<rect x="15" y="1" width="1" height="1" fill="#242630" />
<rect x="0" y="2" width="1" height="1" fill="#242630" />
<rect x="1" y="2" width="1" height="1" fill="#242630" />
<rect x="2" y="2" width="1" height="1" fill="#242630" />
<rect x="3" y="2" width="1" height="1" fill="#242630" />
<rect x="4" y="2" width="1" height="1" fill="#242630" />
<rect x="5" y="2" width="1" height="1" fill="#242630" />
<rect x="6" y="2" width="1" height="1" fill="#242630" />
<rect x="7" y="2" width="1" height="1" fill="#242630" />
<rect x="8" y="2" width="1" height="1" fill="#242630" />
<rect x="9" y="2" width="1" height="1" fill="#242630" />
<rect x="10" y="2" width="1" height="1" fill="#242630" />
<rect x="11" y="2" width="1" height="1" fill="#242630" />
<rect x="12" y="2" width="1" height="1" fill="#242630" />
<rect x="13" y="2" width="1" height="1" fill="#242630" />
<rect x="14" y="2" width="1" height="1" fill="#242630" />
<rect x="15" y="2" width="1" height="1" fill="#242630" />
<rect x="0" y="3" width="1" height="1" fill="#242630" />
<rect x="1" y="3" width="1" height="1" fill="#242630" />
<rect x="2" y="3" width="1" height="1" fill="#242630" />
<rect x="3" y="3" width="1" height="1" fill="#242630" />
<rect x="4" y="3" width="1" height="1" fill="#242630" />
<rect x="5" y="3" width="1" height="1" fill="#242630" />
<rect x="6" y="3" width="1" height="1" fill="#242630" />
<rect x="7" y="3" width="1" height="1" fill="#242630" />
<rect x="8" y="3" width="1" height="1" fill="#242630" />
<rect x="9" y="3" width="1" height="1" fill="#242630" />
<rect x="10" y="3" width="1" height="1" fill="#242630" />
<rect x="11" y="3" width="1" height="1" fill="#483528" />
<rect x="12" y="3" width="1" height="1" fill="#674121" />
<rect x="13" y="3" width="1" height="1" fill="#242630" />
<rect x="14" y="3" width="1" height="1" fill="#242630" />
<rect x="15" y="3" width="1" height="1" fill="#242630" />
<rect x="0" y="4" width="1" height="1" fill="#242630" />
<rect x="1" y="4" width="1" height="1" fill="#242630" />
<rect x="2" y="4" width="1" height="1" fill="#242630" />
<rect x="3" y="4" width="1" height="1" fill="#242630" />
<rect x="4" y="4" width="1" height="1" fill="#242630" />
<rect x="5" y="4" width="1" height="1" fill="#242630" />
<rect x="6" y="4" width="1" height="1" fill="#242630" />
<rect x="7" y="4" width="1" height="1" fill="#3F2F2A" />
<rect x="8" y="4" width="1" height="1" fill="#B35710" />
<rect x="9" y="4" width="1" height="1" fill="#FF7B00" />
<rect x="10" y="4" width="1" height="1" fill="#FF8200" />
<rect x="11" y="4" width="1" height="1" fill="#FF7F00" />
<rect x="12" y="4" width="1" height="1" fill="#D77208" />
<rect x="13" y="4" width="1" height="1" fill="#242630" />
<rect x="14" y="4" width="1" height="1" fill="#242630" />
<rect x="15" y="4" width="1" height="1" fill="#242630" />
<rect x="0" y="5" width="1" height="1" fill="#242630" />
<rect x="1" y="5" width="1" height="1" fill="#242630" />
<rect x="2" y="5" width="1" height="1" fill="#242630" />
<rect x="3" y="5" width="1" height="1" fill="#242630" />
<rect x="4" y="5" width="1" height="1" fill="#242630" />
<rect x="5" y="5" width="1" height="1" fill="#533426" />
<rect x="6" y="5" width="1" height="1" fill="#C9590B" />
<rect x="7" y="5" width="1" height="1" fill="#F66902" />
<rect x="8" y="5" width="1" height="1" fill="#FF7800" />
<rect x="9" y="5" width="1" height="1" fill="#FF7500" />
<rect x="10" y="5" width="1" height="1" fill="#FF7800" />
<rect x="11" y="5" width="1" height="1" fill="#FF7E00" />
<rect x="12" y="5" width="1" height="1" fill="#A55C13" />
<rect x="13" y="5" width="1" height="1" fill="#242630" />
<rect x="14" y="5" width="1" height="1" fill="#242630" />
<rect x="15" y="5" width="1" height="1" fill="#242630" />
<rect x="0" y="6" width="1" height="1" fill="#242630" />
<rect x="1" y="6" width="1" height="1" fill="#242630" />
<rect x="2" y="6" width="1" height="1" fill="#242630" />
<rect x="3" y="6" width="1" height="1" fill="#242630" />
<rect x="4" y="6" width="1" height="1" fill="#F65A0E" />
<rect x="5" y="6" width="1" height="1" fill="#FF6500" />
<rect x="6" y="6" width="1" height="1" fill="#FF6800" />
<rect x="7" y="6" width="1" height="1" fill="#FF6A00" />
<rect x="8" y="6" width="1" height="1" fill="#FF7000" />
<rect x="9" y="6" width="1" height="1" fill="#F57302" />
<rect x="10" y="6" width="1" height="1" fill="#DA6C08" />
<rect x="11" y="6" width="1" height="1" fill="#6A4321" />
<rect x="12" y="6" width="1" height="1" fill="#242630" />
<rect x="13" y="6" width="1" height="1" fill="#242630" />
<rect x="14" y="6" width="1" height="1" fill="#242630" />
<rect x="15" y="6" width="1" height="1" fill="#242630" />
<rect x="0" y="7" width="1" height="1" fill="#242630" />
<rect x="1" y="7" width="1" height="1" fill="#242630" />
<rect x="2" y="7" width="1" height="1" fill="#242630" />
<rect x="3" y="7" width="1" height="1" fill="#242630" />
<rect x="4" y="7" width="1" height="1" fill="#D35212" />
<rect x="5" y="7" width="1" height="1" fill="#FF6700" />
<rect x="6" y="7" width="1" height="1" fill="#FF6800" />
<rect x="7" y="7" width="1" height="1" fill="#FF6A00" />
<rect x="8" y="7" width="1" height="1" fill="#FB7000" />
<rect x="9" y="7" width="1" height="1" fill="#8B4E19" />
<rect x="10" y="7" width="1" height="1" fill="#302B2D" />
<rect x="11" y="7" width="1" height="1" fill="#242630" />
<rect x="12" y="7" width="1" height="1" fill="#242630" />
<rect x="13" y="7" width="1" height="1" fill="#242630" />
<rect x="14" y="7" width="1" height="1" fill="#242630" />
<rect x="15" y="7" width="1" height="1" fill="#242630" />
<rect x="0" y="8" width="1" height="1" fill="#242630" />
<rect x="1" y="8" width="1" height="1" fill="#242630" />
<rect x="2" y="8" width="1" height="1" fill="#242630" />
<rect x="3" y="8" width="1" height="1" fill="#242630" />
<rect x="4" y="8" width="1" height="1" fill="#643625" />
<rect x="5" y="8" width="1" height="1" fill="#D3590B" />
<rect x="6" y="8" width="1" height="1" fill="#FF6E00" />
<rect x="7" y="8" width="1" height="1" fill="#FF6C00" />
<rect x="8" y="8" width="1" height="1" fill="#FC7300" />
<rect x="9" y="8" width="1" height="1" fill="#FC7900" />
<rect x="10" y="8" width="1" height="1" fill="#FF8000" />
<rect x="11" y="8" width="1" height="1" fill="#BE670E" />
<rect x="12" y="8" width="1" height="1" fill="#242630" />
<rect x="13" y="8" width="1" height="1" fill="#242630" />
<rect x="14" y="8" width="1" height="1" fill="#242630" />
<rect x="15" y="8" width="1" height="1" fill="#242630" />
<rect x="0" y="9" width="1" height="1" fill="#242630" />
<rect x="1" y="9" width="1" height="1" fill="#242630" />
<rect x="2" y="9" width="1" height="1" fill="#242630" />
<rect x="3" y="9" width="1" height="1" fill="#242630" />
<rect x="4" y="9" width="1" height="1" fill="#242630" />
<rect x="5" y="9" width="1" height="1" fill="#242630" />
<rect x="6" y="9" width="1" height="1" fill="#8E4819" />
<rect x="7" y="9" width="1" height="1" fill="#EA6804" />
<rect x="8" y="9" width="1" height="1" fill="#FB7200" />
<rect x="9" y="9" width="1" height="1" fill="#FF7A00" />
<rect x="10" y="9" width="1" height="1" fill="#FF7D00" />
<rect x="11" y="9" width="1" height="1" fill="#D87008" />
<rect x="12" y="9" width="1" height="1" fill="#242630" />
<rect x="13" y="9" width="1" height="1" fill="#242630" />
<rect x="14" y="9" width="1" height="1" fill="#242630" />
<rect x="15" y="9" width="1" height="1" fill="#242630" />
<rect x="0" y="10" width="1" height="1" fill="#242630" />
<rect x="1" y="10" width="1" height="1" fill="#242630" />
<rect x="2" y="10" width="1" height="1" fill="#242630" />
<rect x="3" y="10" width="1" height="1" fill="#242630" />
<rect x="4" y="10" width="1" height="1" fill="#F46502" />
<rect x="5" y="10" width="1" height="1" fill="#FF6F00" />
<rect x="6" y="10" width="1" height="1" fill="#FF6F00" />
<rect x="7" y="10" width="1" height="1" fill="#FF6F00" />
<rect x="8" y="10" width="1" height="1" fill="#FF7500" />
<rect x="9" y="10" width="1" height="1" fill="#FF7D00" />
<rect x="10" y="10" width="1" height="1" fill="#FF8500" />
<rect x="11" y="10" width="1" height="1" fill="#E57705" />
<rect x="12" y="10" width="1" height="1" fill="#242630" />
<rect x="13" y="10" width="1" height="1" fill="#242630" />
<rect x="14" y="10" width="1" height="1" fill="#242630" />
<rect x="15" y="10" width="1" height="1" fill="#242630" />
<rect x="0" y="11" width="1" height="1" fill="#242630" />
<rect x="1" y="11" width="1" height="1" fill="#242630" />
<rect x="2" y="11" width="1" height="1" fill="#242630" />
<rect x="3" y="11" width="1" height="1" fill="#7C3D22" />
<rect x="4" y="11" width="1" height="1" fill="#FF6600" />
<rect x="5" y="11" width="1" height="1" fill="#FF6700" />
<rect x="6" y="11" width="1" height="1" fill="#FF6C00" />
<rect x="7" y="11" width="1" height="1" fill="#FF7000" />
<rect x="8" y="11" width="1" height="1" fill="#FF7E00" />
<rect x="9" y="11" width="1" height="1" fill="#F27703" />
<rect x="10" y="11" width="1" height="1" fill="#C1670D" />
<rect x="11" y="11" width="1" height="1" fill="#3D312B" />
<rect x="12" y="11" width="1" height="1" fill="#242630" />
<rect x="13" y="11" width="1" height="1" fill="#242630" />
<rect x="14" y="11" width="1" height="1" fill="#242630" />
<rect x="15" y="11" width="1" height="1" fill="#242630" />
<rect x="0" y="12" width="1" height="1" fill="#242630" />
<rect x="1" y="12" width="1" height="1" fill="#242630" />
<rect x="2" y="12" width="1" height="1" fill="#242630" />
<rect x="3" y="12" width="1" height="1" fill="#BC4C19" />
<rect x="4" y="12" width="1" height="1" fill="#FF6C00" />
<rect x="5" y="12" width="1" height="1" fill="#F86701" />
<rect x="6" y="12" width="1" height="1" fill="#914A18" />
<rect x="7" y="12" width="1" height="1" fill="#553825" />
<rect x="8" y="12" width="1" height="1" fill="#242630" />
<rect x="9" y="12" width="1" height="1" fill="#242630" />
<rect x="10" y="12" width="1" height="1" fill="#242630" />
<rect x="11" y="12" width="1" height="1" fill="#242630" />
<rect x="12" y="12" width="1" height="1" fill="#242630" />
<rect x="13" y="12" width="1" height="1" fill="#242630" />
<rect x="14" y="12" width="1" height="1" fill="#242630" />
<rect x="15" y="12" width="1" height="1" fill="#242630" />
<rect x="0" y="13" width="1" height="1" fill="#242630" />
<rect x="1" y="13" width="1" height="1" fill="#242630" />
<rect x="2" y="13" width="1" height="1" fill="#242630" />
<rect x="3" y="13" width="1" height="1" fill="#763B22" />
<rect x="4" y="13" width="1" height="1" fill="#773F1E" />
<rect x="5" y="13" width="1" height="1" fill="#402F2A" />
<rect x="6" y="13" width="1" height="1" fill="#242630" />
<rect x="7" y="13" width="1" height="1" fill="#242630" />
<rect x="8" y="13" width="1" height="1" fill="#242630" />
<rect x="9" y="13" width="1" height="1" fill="#242630" />
<rect x="10" y="13" width="1" height="1" fill="#242630" />
<rect x="11" y="13" width="1" height="1" fill="#242630" />
<rect x="12" y="13" width="1" height="1" fill="#242630" />
<rect x="13" y="13" width="1" height="1" fill="#242630" />
<rect x="14" y="13" width="1" height="1" fill="#242630" />
<rect x="15" y="13" width="1" height="1" fill="#242630" />
<rect x="0" y="14" width="1" height="1" fill="#242630" />
<rect x="1" y="14" width="1" height="1" fill="#242630" />
<rect x="2" y="14" width="1" height="1" fill="#242630" />
<rect x="3" y="14" width="1" height="1" fill="#242630" />
<rect x="4" y="14" width="1" height="1" fill="#242630" />
<rect x="5" y="14" width="1" height="1" fill="#242630" />
<rect x="6" y="14" width="1" height="1" fill="#242630" />
<rect x="7" y="14" width="1" height="1" fill="#242630" />
<rect x="8" y="14" width="1" height="1" fill="#242630" />
<rect x="9" y="14" width="1" height="1" fill="#242630" />
<rect x="10" y="14" width="1" height="1" fill="#242630" />
<rect x="11" y="14" width="1" height="1" fill="#242630" />
<rect x="12" y="14" width="1" height="1" fill="#242630" />
<rect x="13" y="14" width="1" height="1" fill="#242630" />
<rect x="14" y="14" width="1" height="1" fill="#242630" />
<rect x="15" y="14" width="1" height="1" fill="#242630" />
<rect x="0" y="15" width="1" height="1" fill="#242630" />
<rect x="1" y="15" width="1" height="1" fill="#242630" />
<rect x="2" y="15" width="1" height="1" fill="#242630" />
<rect x="3" y="15" width="1" height="1" fill="#242630" />
<rect x="4" y="15" width="1" height="1" fill="#242630" />
<rect x="5" y="15" width="1" height="1" fill="#242630" />
<rect x="6" y="15" width="1" height="1" fill="#242630" />
<rect x="7" y="15" width="1" height="1" fill="#242630" />
<rect x="8" y="15" width="1" height="1" fill="#242630" />
<rect x="9" y="15" width="1" height="1" fill="#242630" />
<rect x="10" y="15" width="1" height="1" fill="#242630" />
<rect x="11" y="15" width="1" height="1" fill="#242630" />
<rect x="12" y="15" width="1" height="1" fill="#242630" />
<rect x="13" y="15" width="1" height="1" fill="#242630" />
<rect x="14" y="15" width="1" height="1" fill="#242630" />
<rect x="15" y="15" width="1" height="1" fill="#242630" />
</svg>